<svg width="40" height="40" viewBox="0 0 40 40" fill="none" xmlns="http://www.w3.org/2000/svg">
<mask id="mask0_122_1046" style="mask-type:alpha" maskUnits="userSpaceOnUse" x="2" y="2" width="36" height="36">
<path fill-rule="evenodd" clip-rule="evenodd" d="M3.23223 3.23223C4.20854 2.25592 5.79146 2.25592 6.76777 3.23223L36.7678 33.2322C37.7441 34.2085 37.7441 35.7915 36.7678 36.7678C35.7915 37.7441 34.2085 37.7441 33.2322 36.7678L3.23223 6.76777C2.25592 5.79146 2.25592 4.20854 3.23223 3.23223Z" fill="#006FFD"/>
<path fill-rule="evenodd" clip-rule="evenodd" d="M36.7678 3.23223C35.7915 2.25592 34.2085 2.25592 33.2322 3.23223L3.23223 33.2322C2.25592 34.2085 2.25592 35.7915 3.23223 36.7678C4.20855 37.7441 5.79146 37.7441 6.76777 36.7678L36.7678 6.76777C37.7441 5.79146 37.7441 4.20854 36.7678 3.23223Z" fill="#006FFD"/>
</mask>
<g mask="url(#mask0_122_1046)">
<rect width="40" height="40" fill="#C1A881"/>
</g>
</svg>
