<svg version="1.1" id="Layer_1" xmlns="http://www.w3.org/2000/svg" xmlns:xlink="http://www.w3.org/1999/xlink" x="0px" y="0px"
	 width="100%" viewBox="0 0 2530 590" enable-background="new 0 0 2530 590" xml:space="preserve">
<path fill="transparent" opacity="1.000000" stroke="none" 
	d="
M1881.000000,591.000000 
	C1254.000122,591.000000 627.500244,591.000000 1.000252,591.000000 
	C1.000168,394.333466 1.000168,197.666962 1.000084,1.000331 
	C844.333008,1.000221 1687.666016,1.000221 2530.999268,1.000110 
	C2530.999512,197.666336 2530.999512,394.332672 2530.999756,590.999512 
	C2314.500000,591.000000 2098.000000,591.000000 1881.000000,591.000000 
M2290.446533,88.916473 
	C2270.611328,94.844925 2257.081787,108.405144 2247.163574,125.769836 
	C2241.191650,136.225281 2238.785156,147.818588 2238.878662,160.031952 
	C2238.950928,169.444382 2239.782471,178.576660 2242.891113,187.503632 
	C2248.394531,203.306076 2258.166016,215.885498 2271.940674,225.136246 
	C2275.474854,227.509644 2275.252686,230.144775 2274.872314,233.108414 
	C2274.127197,238.909225 2272.853271,244.640335 2272.029785,250.433197 
	C2270.285400,262.703003 2268.661865,274.990265 2267.051025,287.278534 
	C2266.592041,290.780609 2266.346436,294.310699 2266.018066,297.672119 
	C2332.330811,281.858276 2394.423096,292.656555 2453.903076,323.506317 
	C2454.942383,314.801270 2455.911133,306.032684 2457.052734,297.286621 
	C2458.635498,285.158020 2460.127441,273.009338 2462.151611,260.951996 
	C2462.693604,257.722107 2461.875977,253.432175 2467.047607,251.934280 
	C2482.513428,247.454514 2494.458496,237.907516 2504.266357,225.298935 
	C2518.761475,206.665222 2521.752930,185.539124 2517.483887,163.139633 
	C2514.084961,145.307922 2505.229492,130.426804 2490.677734,119.131485 
	C2480.332520,111.101341 2468.810059,105.888077 2455.862061,104.075096 
	C2452.010254,103.535751 2449.525146,102.323761 2447.716553,98.506546 
	C2435.366699,72.439468 2405.622314,54.882225 2375.189941,59.853592 
	C2356.987793,62.827061 2341.910645,70.401711 2330.430908,84.942009 
	C2329.733887,85.824562 2328.275635,86.745300 2327.269287,86.647217 
	C2315.111816,85.462204 2303.021973,85.165276 2290.446533,88.916473 
M2143.500000,170.000000 
	C2135.405762,170.000000 2127.311523,170.000000 2118.707031,170.000000 
	C2118.707031,229.620316 2118.707031,288.593262 2118.707031,347.707184 
	C2114.605957,344.137360 2111.009766,340.722504 2107.126465,337.673462 
	C2084.231934,319.697815 2058.179443,315.015991 2030.399414,321.441437 
	C2001.333008,328.164398 1980.770630,346.435211 1966.906128,372.487122 
	C1955.552612,393.821014 1952.096191,416.600708 1953.838989,440.593811 
	C1954.816895,454.056244 1957.051270,467.085999 1962.054443,479.555298 
	C1969.241455,497.467468 1979.800537,513.180969 1995.484375,524.642700 
	C2015.062500,538.950562 2037.030396,545.244934 2061.545166,543.162598 
	C2077.209229,541.832031 2091.368896,537.230835 2104.196045,528.345337 
	C2109.159668,524.906799 2113.928711,521.187561 2119.211426,517.282288 
	C2119.211426,524.372437 2119.211426,530.984802 2119.211426,537.713684 
	C2135.911377,537.713684 2152.301025,537.713684 2168.706055,537.713684 
	C2168.706055,415.048950 2168.706055,292.673004 2168.706055,170.000000 
	C2160.443604,170.000000 2152.471924,170.000000 2143.500000,170.000000 
M287.999664,230.532501 
	C289.715851,221.799667 285.849152,217.612671 277.837921,213.645187 
	C258.077179,203.858871 237.535019,196.773895 215.731552,195.274078 
	C188.963440,193.432755 162.371292,195.286057 136.694687,204.858658 
	C114.664581,213.071808 95.249016,225.092667 78.285408,241.229340 
	C66.706688,252.243622 56.811226,264.582428 48.258156,278.125580 
	C32.549854,302.998535 24.137522,330.174347 22.094234,359.324066 
	C20.984217,375.159668 22.002558,391.061829 25.151806,406.605072 
	C31.106161,435.993103 44.164871,462.111450 64.125755,484.492676 
	C82.796432,505.427277 104.887589,521.815552 131.236435,532.025879 
	C147.885162,538.477417 165.106842,542.395386 182.989166,542.957397 
	C191.000763,543.209229 199.038300,543.266296 207.042999,542.921814 
	C214.405014,542.605042 221.853317,542.224487 229.062943,540.832581 
	C248.755859,537.030640 267.372314,530.066467 285.062927,520.559509 
	C287.619507,519.185608 288.048798,517.606018 288.038940,515.099487 
	C287.966766,496.772095 288.007507,478.444275 287.979675,460.116608 
	C287.978119,459.089355 287.684875,458.062561 287.451508,456.540619 
	C283.254974,459.835541 279.585632,462.789795 275.840057,465.643982 
	C263.401367,475.122498 250.385590,483.673126 235.550720,488.950958 
	C217.924911,495.221710 199.810043,496.090515 181.268585,494.149445 
	C166.991745,492.654816 153.520416,488.809998 140.936722,482.303406 
	C125.223335,474.178467 111.717453,463.014893 100.697586,449.122589 
	C84.493042,428.694214 75.861404,405.155518 74.130112,379.300720 
	C72.952148,361.709351 75.116974,344.327637 80.840263,327.501648 
	C85.701523,313.209991 92.778404,300.276947 102.613861,288.703033 
	C113.362694,276.054321 125.140900,264.730927 139.949356,257.034729 
	C163.503052,244.793488 188.383041,240.589127 214.734726,244.926392 
	C232.783539,247.897095 249.372131,254.390717 264.662476,264.242310 
	C272.379425,269.214355 279.793976,274.655701 287.999664,280.338013 
	C287.999664,263.672913 287.999664,247.597198 287.999664,230.532501 
M932.470459,386.021606 
	C930.546204,387.972717 928.621948,389.923798 925.822021,392.762817 
	C925.822021,317.642853 925.822021,244.037201 925.822021,170.259003 
	C909.153198,170.259003 892.759827,170.259003 876.264099,170.259003 
	C876.264099,292.901886 876.264099,415.285583 876.264099,537.702148 
	C892.928650,537.702148 909.323975,537.702148 926.000244,537.702148 
	C926.000244,535.767517 926.000244,534.124023 926.000244,532.480469 
	C925.999939,508.983887 926.221191,485.483826 925.850159,461.993103 
	C925.752014,455.778717 929.560425,452.740723 932.949585,448.423889 
	C935.532898,451.463348 937.840637,453.979309 939.927246,456.666992 
	C951.035400,470.975159 962.029724,485.372101 973.178528,499.648407 
	C982.321594,511.356293 991.775146,522.825378 1000.736511,534.668579 
	C1002.599121,537.130249 1004.229858,538.059631 1007.129761,538.045898 
	C1025.793213,537.957153 1044.457397,538.005188 1063.121338,537.990051 
	C1064.362793,537.989014 1065.604248,537.837341 1068.363892,537.655945 
	C1034.793457,495.937988 1001.980469,455.161224 969.171692,414.389771 
	C999.846680,384.753754 1030.304321,355.327728 1061.695801,324.999603 
	C1058.761475,324.999603 1057.167847,324.999603 1055.574219,324.999634 
	C1036.743652,324.999725 1017.912231,325.090942 999.083069,324.926147 
	C995.122009,324.891449 992.258606,326.154419 989.503601,328.931854 
	C970.729614,347.858490 951.834167,366.664703 932.470459,386.021606 
M1456.943726,491.604279 
	C1463.698486,505.007080 1473.202148,516.074280 1485.225586,525.028625 
	C1496.312134,533.285278 1508.572144,539.018860 1522.152344,541.538208 
	C1535.883667,544.085693 1549.607666,544.595093 1563.445923,541.317261 
	C1580.342407,537.315063 1594.322510,528.263550 1608.047729,516.913879 
	C1608.047729,524.264465 1608.047729,530.958984 1608.047729,537.695190 
	C1624.959229,537.695190 1641.345337,537.695190 1657.701172,537.695190 
	C1657.701172,466.687683 1657.701172,395.987152 1657.701172,325.323578 
	C1641.010864,325.323578 1624.621460,325.323578 1607.699219,325.323578 
	C1607.699219,332.952820 1607.699219,340.269257 1607.699219,348.101654 
	C1584.633789,324.233521 1555.843262,314.304260 1522.265869,320.977722 
	C1492.687988,326.856323 1471.713013,344.424896 1457.128052,369.905731 
	C1444.636841,391.728455 1441.039673,415.549652 1442.827026,440.591888 
	C1444.100342,458.432434 1447.972290,475.264648 1456.943726,491.604279 
M2284.698242,533.950439 
	C2307.518311,544.048889 2331.430176,545.968872 2355.646484,541.802979 
	C2379.175049,537.755371 2399.251221,526.785706 2416.231934,509.527832 
	C2434.693604,490.764648 2444.670654,468.356537 2446.778564,442.652924 
	C2448.296143,424.147278 2446.545898,405.782196 2439.166748,388.161224 
	C2429.062744,364.033875 2412.606934,345.826080 2390.046875,333.078278 
	C2376.928711,325.665527 2362.882080,320.515259 2347.622803,320.065979 
	C2336.294922,319.732483 2324.740479,318.777924 2313.651367,320.477325 
	C2294.008301,323.487549 2276.181152,331.302216 2260.741455,344.510956 
	C2245.649658,357.421875 2233.672607,372.308685 2226.989746,391.105103 
	C2221.520752,406.486633 2219.582275,422.215912 2220.750732,438.683258 
	C2221.829346,453.884521 2224.859131,468.412567 2231.569824,481.870148 
	C2243.083252,504.959564 2260.646973,522.310120 2284.698242,533.950439 
M378.677094,524.950317 
	C395.727753,535.735535 413.938934,542.939514 434.458099,542.999207 
	C440.643860,543.017151 446.850891,543.320129 453.009674,542.911621 
	C459.347778,542.491333 465.759888,541.882751 471.928802,540.449341 
	C493.959076,535.330383 512.383484,524.121643 528.018555,507.664062 
	C545.636902,489.118835 554.860107,467.024078 556.824158,442.000824 
	C558.281494,423.433716 556.465637,405.011719 549.023315,387.518829 
	C539.864868,365.992279 525.395081,348.917999 505.748779,336.424103 
	C491.049774,327.076385 475.079010,320.695892 457.413483,320.053894 
	C446.247803,319.648102 434.818115,318.571808 423.918030,320.336243 
	C395.522797,324.932770 372.266937,338.931396 353.897736,361.412811 
	C338.051514,380.806458 330.925018,403.117188 330.207520,427.583099 
	C329.931885,436.981232 331.533112,446.525055 333.089447,455.867493 
	C336.411316,475.808319 345.699829,492.991241 359.360870,507.678986 
	C365.056061,513.802246 371.793030,518.956543 378.677094,524.950317 
M811.945801,486.345917 
	C825.644043,460.899933 828.211975,433.654877 822.732971,405.934967 
	C816.940857,376.631317 800.034607,353.811157 775.470459,337.349579 
	C750.370789,320.529083 721.969666,315.730988 692.443726,320.217285 
	C663.791565,324.570831 640.440491,338.787079 621.933838,361.379059 
	C605.956604,380.883301 598.871033,403.346985 598.198059,427.974274 
	C597.950378,437.037231 599.493652,446.246643 601.059448,455.243164 
	C605.576904,481.200562 619.038025,501.780121 639.049011,518.743958 
	C659.166748,535.798218 682.662720,542.978210 708.296814,543.779541 
	C718.516846,544.098999 729.064636,543.053101 739.028870,540.749634 
	C770.828308,533.398499 794.675415,514.764648 811.945801,486.345917 
M1208.013184,536.249268 
	C1209.125488,536.832581 1210.218994,537.872742 1211.353394,537.919373 
	C1216.010986,538.110901 1220.681030,538.000488 1225.346436,538.000549 
	C1236.118896,538.000793 1246.891235,538.000671 1257.866699,538.000671 
	C1257.926392,536.667786 1257.987427,535.865112 1257.994873,535.061829 
	C1258.332764,498.809875 1258.474121,462.554382 1259.125000,426.308075 
	C1259.303467,416.361938 1260.318115,406.312103 1262.180298,396.544586 
	C1264.583374,383.940247 1270.264526,373.017273 1282.960327,367.504730 
	C1291.485107,363.803314 1300.572021,363.156616 1309.577515,364.136688 
	C1324.111572,365.718536 1334.943115,372.745239 1337.901001,387.961792 
	C1339.918213,398.339020 1341.688232,408.948212 1341.818115,419.475250 
	C1342.282471,457.126587 1341.999878,494.787109 1342.000000,532.444153 
	C1342.000000,534.208862 1342.000000,535.973633 1342.000000,537.661499 
	C1359.009033,537.661499 1375.402100,537.661499 1392.000000,537.661499 
	C1392.000000,535.505859 1392.000000,533.688049 1391.999878,531.870239 
	C1391.999146,493.380096 1392.252197,454.887329 1391.860352,416.401184 
	C1391.723511,402.956970 1390.728394,389.424133 1388.822266,376.118439 
	C1386.068848,356.898743 1376.906860,341.192657 1360.091553,330.526062 
	C1350.448120,324.408905 1339.923218,321.438202 1328.642944,319.857819 
	C1307.611206,316.911194 1288.432495,321.037781 1271.012695,333.072754 
	C1266.679443,336.066498 1262.780884,339.689545 1257.825195,343.720703 
	C1257.825195,336.817566 1257.825195,330.957428 1257.825195,325.236145 
	C1240.961182,325.236145 1224.686401,325.236145 1208.001709,325.236145 
	C1208.001709,395.410553 1208.001709,465.349243 1208.013184,536.249268 
M1769.000000,527.473389 
	C1769.333130,493.380249 1769.469971,459.283295 1770.125000,425.196350 
	C1770.309692,415.578766 1771.271362,405.838867 1773.197266,396.425232 
	C1775.865967,383.381195 1781.736328,371.957336 1795.363647,366.974945 
	C1805.901978,363.121887 1816.592285,363.126984 1827.585449,365.766724 
	C1838.363647,368.354828 1844.336670,374.937714 1848.123779,384.976227 
	C1852.339111,396.150024 1852.610474,407.820953 1852.784668,419.271576 
	C1853.357544,456.927643 1853.000000,494.597809 1853.000000,532.262573 
	C1853.000000,534.045044 1853.000000,535.827576 1853.000000,537.721741 
	C1869.880737,537.721741 1886.275269,537.721741 1902.998535,537.721741 
	C1902.998535,535.649536 1902.998535,533.844238 1902.998535,532.039001 
	C1902.998535,495.207550 1902.887817,458.375580 1903.047729,421.544830 
	C1903.121582,404.548065 1902.749146,387.587921 1898.893066,370.984741 
	C1896.419067,360.332336 1892.135986,350.433533 1884.634399,342.012085 
	C1871.580200,327.357391 1854.715698,320.802216 1835.883667,319.143585 
	C1815.354004,317.335419 1796.226074,321.921997 1779.636841,334.867249 
	C1776.256958,337.504700 1772.938721,340.221344 1768.848755,343.496735 
	C1768.848755,336.679749 1768.848755,331.061920 1768.848755,325.248260 
	C1752.176025,325.248260 1735.781372,325.248260 1719.268555,325.248260 
	C1719.268555,396.224457 1719.268555,466.951782 1719.268555,537.694458 
	C1735.937500,537.694458 1752.333984,537.694458 1769.000000,537.694458 
	C1769.000000,534.416931 1769.000000,531.439148 1769.000000,527.473389 
M1097.002686,348.500000 
	C1097.002686,411.554565 1097.002686,474.609131 1097.002686,537.683228 
	C1113.983521,537.683228 1130.367432,537.683228 1146.702637,537.683228 
	C1146.702637,466.672516 1146.702637,395.980988 1146.702637,325.291992 
	C1130.012695,325.291992 1113.622070,325.291992 1097.002686,325.291992 
	C1097.002686,332.888580 1097.002686,340.194305 1097.002686,348.500000 
M1090.906982,230.493851 
	C1088.165527,241.843994 1091.039307,251.753510 1098.803101,260.269867 
	C1108.977417,271.430481 1126.433105,273.175751 1137.473389,266.575867 
	C1152.696411,257.475464 1157.615479,243.822632 1153.312134,227.736938 
	C1150.006470,215.380844 1135.164185,202.634171 1117.613647,205.917297 
	C1103.765625,208.507797 1093.565186,217.295853 1090.906982,230.493851 
z"/>
<path fill="#BEBDA7" opacity="1.000000" stroke="none" 
	d="
M2290.766113,88.652039 
	C2303.021973,85.165276 2315.111816,85.462204 2327.269287,86.647217 
	C2328.275635,86.745300 2329.733887,85.824562 2330.430908,84.942009 
	C2341.910645,70.401711 2356.987793,62.827061 2375.189941,59.853592 
	C2405.622314,54.882225 2435.366699,72.439468 2447.716553,98.506546 
	C2449.525146,102.323761 2452.010254,103.535751 2455.862061,104.075096 
	C2468.810059,105.888077 2480.332520,111.101341 2490.677734,119.131485 
	C2505.229492,130.426804 2514.084961,145.307922 2517.483887,163.139633 
	C2521.752930,185.539124 2518.761475,206.665222 2504.266357,225.298935 
	C2494.458496,237.907516 2482.513428,247.454514 2467.047607,251.934280 
	C2461.875977,253.432175 2462.693604,257.722107 2462.151611,260.951996 
	C2460.127441,273.009338 2458.635498,285.158020 2457.052734,297.286621 
	C2455.911133,306.032684 2454.942383,314.801270 2453.903076,323.506317 
	C2394.423096,292.656555 2332.330811,281.858276 2266.018066,297.672119 
	C2266.346436,294.310699 2266.592041,290.780609 2267.051025,287.278534 
	C2268.661865,274.990265 2270.285400,262.703003 2272.029785,250.433197 
	C2272.853271,244.640335 2274.127197,238.909225 2274.872314,233.108414 
	C2275.252686,230.144775 2275.474854,227.509644 2271.940674,225.136246 
	C2258.166016,215.885498 2248.394531,203.306076 2242.891113,187.503632 
	C2239.782471,178.576660 2238.950928,169.444382 2238.878662,160.031952 
	C2238.785156,147.818588 2241.191650,136.225281 2247.163574,125.769836 
	C2257.081787,108.405144 2270.611328,94.844925 2290.766113,88.652039 
M2417.145996,164.282776 
	C2429.610596,153.052963 2435.604736,139.162079 2433.892822,122.284119 
	C2456.542725,123.564850 2484.357422,141.343811 2489.595947,173.567245 
	C2491.875000,187.585800 2488.506592,201.102386 2481.064941,213.482285 
	C2473.520996,226.032150 2461.658203,232.606171 2448.578125,237.810013 
	C2451.090820,237.769150 2453.475586,237.433258 2455.839844,236.989090 
	C2471.024902,234.136322 2483.159668,226.102951 2491.901367,213.704941 
	C2501.230713,200.473038 2504.850342,185.620819 2502.105957,169.222153 
	C2498.740234,149.110611 2487.831787,134.662552 2470.274658,125.147079 
	C2460.233887,119.705078 2449.130127,117.923706 2437.716064,117.893066 
	C2436.150391,117.888870 2433.461182,116.716362 2433.193359,115.620155 
	C2429.045410,98.645386 2417.733887,88.277802 2402.281006,81.847450 
	C2397.407471,79.819458 2392.115723,78.797043 2387.015625,77.314407 
	C2413.185059,89.031090 2424.527588,108.729836 2424.851318,135.065323 
	C2424.978271,145.382919 2421.146240,154.999527 2415.367188,164.146027 
	C2415.265137,164.660706 2415.163086,165.175385 2415.061279,165.690079 
	C2415.355225,165.916199 2415.649170,166.142319 2415.943359,166.368439 
	C2416.176270,165.819931 2416.409180,165.271408 2417.145996,164.282776 
M2299.726807,243.045273 
	C2294.121338,247.230713 2288.078369,250.950775 2283.014160,255.711960 
	C2275.626221,262.658051 2274.186768,274.161377 2278.478271,281.318176 
	C2337.240967,271.193359 2393.269043,278.095093 2446.683105,304.403015 
	C2453.484863,293.275818 2452.051514,282.402771 2444.474365,271.942627 
	C2434.401367,258.036987 2419.940918,250.234177 2404.556641,244.099030 
	C2385.220947,236.388000 2365.059814,233.189438 2344.146729,233.873550 
	C2328.978027,234.369781 2314.460449,237.071793 2299.726807,243.045273 
z"/>
<path fill="#BEBDA7" opacity="1.000000" stroke="none" 
	d="
M2144.000000,170.000000 
	C2152.471924,170.000000 2160.443604,170.000000 2168.706055,170.000000 
	C2168.706055,292.673004 2168.706055,415.048950 2168.706055,537.713684 
	C2152.301025,537.713684 2135.911377,537.713684 2119.211426,537.713684 
	C2119.211426,530.984802 2119.211426,524.372437 2119.211426,517.282288 
	C2113.928711,521.187561 2109.159668,524.906799 2104.196045,528.345337 
	C2091.368896,537.230835 2077.209229,541.832031 2061.545166,543.162598 
	C2037.030396,545.244934 2015.062500,538.950562 1995.484375,524.642700 
	C1979.800537,513.180969 1969.241455,497.467468 1962.054443,479.555298 
	C1957.051270,467.085999 1954.816895,454.056244 1953.838989,440.593811 
	C1952.096191,416.600708 1955.552612,393.821014 1966.906128,372.487122 
	C1980.770630,346.435211 2001.333008,328.164398 2030.399414,321.441437 
	C2058.179443,315.015991 2084.231934,319.697815 2107.126465,337.673462 
	C2111.009766,340.722504 2114.605957,344.137360 2118.707031,347.707184 
	C2118.707031,288.593262 2118.707031,229.620316 2118.707031,170.000000 
	C2127.311523,170.000000 2135.405762,170.000000 2144.000000,170.000000 
M2004.999756,439.567413 
	C2005.331055,441.987671 2005.692627,444.404205 2005.988892,446.828705 
	C2007.691284,460.756378 2013.668091,472.880280 2023.380859,482.636353 
	C2036.593628,495.907990 2052.773438,500.923553 2071.662354,498.141113 
	C2091.175049,495.266815 2105.233887,485.137512 2113.890137,467.919891 
	C2124.540283,446.735992 2124.975098,424.716461 2117.095947,402.423340 
	C2109.217041,380.131348 2088.522217,364.265778 2064.004639,364.004730 
	C2047.598267,363.830048 2033.790894,369.726929 2022.646118,381.807861 
	C2007.746948,397.958496 2002.686035,417.156738 2004.999756,439.567413 
z"/>
<path fill="#BEBDA7" opacity="1.000000" stroke="none" 
	d="
M287.999664,231.026993 
	C287.999664,247.597198 287.999664,263.672913 287.999664,280.338013 
	C279.793976,274.655701 272.379425,269.214355 264.662476,264.242310 
	C249.372131,254.390717 232.783539,247.897095 214.734726,244.926392 
	C188.383041,240.589127 163.503052,244.793488 139.949356,257.034729 
	C125.140900,264.730927 113.362694,276.054321 102.613861,288.703033 
	C92.778404,300.276947 85.701523,313.209991 80.840263,327.501648 
	C75.116974,344.327637 72.952148,361.709351 74.130112,379.300720 
	C75.861404,405.155518 84.493042,428.694214 100.697586,449.122589 
	C111.717453,463.014893 125.223335,474.178467 140.936722,482.303406 
	C153.520416,488.809998 166.991745,492.654816 181.268585,494.149445 
	C199.810043,496.090515 217.924911,495.221710 235.550720,488.950958 
	C250.385590,483.673126 263.401367,475.122498 275.840057,465.643982 
	C279.585632,462.789795 283.254974,459.835541 287.451508,456.540619 
	C287.684875,458.062561 287.978119,459.089355 287.979675,460.116608 
	C288.007507,478.444275 287.966766,496.772095 288.038940,515.099487 
	C288.048798,517.606018 287.619507,519.185608 285.062927,520.559509 
	C267.372314,530.066467 248.755859,537.030640 229.062943,540.832581 
	C221.853317,542.224487 214.405014,542.605042 207.042999,542.921814 
	C199.038300,543.266296 191.000763,543.209229 182.989166,542.957397 
	C165.106842,542.395386 147.885162,538.477417 131.236435,532.025879 
	C104.887589,521.815552 82.796432,505.427277 64.125755,484.492676 
	C44.164871,462.111450 31.106161,435.993103 25.151806,406.605072 
	C22.002558,391.061829 20.984217,375.159668 22.094234,359.324066 
	C24.137522,330.174347 32.549854,302.998535 48.258156,278.125580 
	C56.811226,264.582428 66.706688,252.243622 78.285408,241.229340 
	C95.249016,225.092667 114.664581,213.071808 136.694687,204.858658 
	C162.371292,195.286057 188.963440,193.432755 215.731552,195.274078 
	C237.535019,196.773895 258.077179,203.858871 277.837921,213.645187 
	C285.849152,217.612671 289.715851,221.799667 287.999664,231.026993 
z"/>
<path fill="#BEBDA7" opacity="1.000000" stroke="none" 
	d="
M932.724182,385.765686 
	C951.834167,366.664703 970.729614,347.858490 989.503601,328.931854 
	C992.258606,326.154419 995.122009,324.891449 999.083069,324.926147 
	C1017.912231,325.090942 1036.743652,324.999725 1055.574219,324.999634 
	C1057.167847,324.999603 1058.761475,324.999603 1061.695801,324.999603 
	C1030.304321,355.327728 999.846680,384.753754 969.171692,414.389771 
	C1001.980469,455.161224 1034.793457,495.937988 1068.363892,537.655945 
	C1065.604248,537.837341 1064.362793,537.989014 1063.121338,537.990051 
	C1044.457397,538.005188 1025.793213,537.957153 1007.129761,538.045898 
	C1004.229858,538.059631 1002.599121,537.130249 1000.736511,534.668579 
	C991.775146,522.825378 982.321594,511.356293 973.178528,499.648407 
	C962.029724,485.372101 951.035400,470.975159 939.927246,456.666992 
	C937.840637,453.979309 935.532898,451.463348 932.949585,448.423889 
	C929.560425,452.740723 925.752014,455.778717 925.850159,461.993103 
	C926.221191,485.483826 925.999939,508.983887 926.000244,532.480469 
	C926.000244,534.124023 926.000244,535.767517 926.000244,537.702148 
	C909.323975,537.702148 892.928650,537.702148 876.264099,537.702148 
	C876.264099,415.285583 876.264099,292.901886 876.264099,170.259003 
	C892.759827,170.259003 909.153198,170.259003 925.822021,170.259003 
	C925.822021,244.037201 925.822021,317.642853 925.822021,392.762817 
	C928.621948,389.923798 930.546204,387.972717 932.724182,385.765686 
z"/>
<path fill="#BEBDA7" opacity="1.000000" stroke="none" 
	d="
M1456.718018,491.298279 
	C1447.972290,475.264648 1444.100342,458.432434 1442.827026,440.591888 
	C1441.039673,415.549652 1444.636841,391.728455 1457.128052,369.905731 
	C1471.713013,344.424896 1492.687988,326.856323 1522.265869,320.977722 
	C1555.843262,314.304260 1584.633789,324.233521 1607.699219,348.101654 
	C1607.699219,340.269257 1607.699219,332.952820 1607.699219,325.323578 
	C1624.621460,325.323578 1641.010864,325.323578 1657.701172,325.323578 
	C1657.701172,395.987152 1657.701172,466.687683 1657.701172,537.695190 
	C1641.345337,537.695190 1624.959229,537.695190 1608.047729,537.695190 
	C1608.047729,530.958984 1608.047729,524.264465 1608.047729,516.913879 
	C1594.322510,528.263550 1580.342407,537.315063 1563.445923,541.317261 
	C1549.607666,544.595093 1535.883667,544.085693 1522.152344,541.538208 
	C1508.572144,539.018860 1496.312134,533.285278 1485.225586,525.028625 
	C1473.202148,516.074280 1463.698486,505.007080 1456.718018,491.298279 
M1493.000000,430.539917 
	C1493.663940,435.887421 1494.386719,441.228394 1494.980347,446.583679 
	C1496.529541,460.559357 1502.564453,472.661591 1512.205688,482.439819 
	C1525.466431,495.889099 1541.815430,501.058289 1560.840820,498.097565 
	C1583.487915,494.573303 1597.837769,481.600677 1606.079834,460.786591 
	C1611.682617,446.637665 1612.011841,432.127258 1610.039917,417.311890 
	C1608.317383,404.370331 1603.422852,392.905029 1594.674561,383.199493 
	C1580.767456,367.770447 1563.541016,361.998932 1542.959839,364.913208 
	C1527.519653,367.099487 1516.335083,375.484802 1507.022217,387.233490 
	C1497.173218,399.658478 1494.272217,414.361298 1493.000000,430.539917 
z"/>
<path fill="#BEBDA7" opacity="1.000000" stroke="none" 
	d="
M2284.368164,533.745972 
	C2260.646973,522.310120 2243.083252,504.959564 2231.569824,481.870148 
	C2224.859131,468.412567 2221.829346,453.884521 2220.750732,438.683258 
	C2219.582275,422.215912 2221.520752,406.486633 2226.989746,391.105103 
	C2233.672607,372.308685 2245.649658,357.421875 2260.741455,344.510956 
	C2276.181152,331.302216 2294.008301,323.487549 2313.651367,320.477325 
	C2324.740479,318.777924 2336.294922,319.732483 2347.622803,320.065979 
	C2362.882080,320.515259 2376.928711,325.665527 2390.046875,333.078278 
	C2412.606934,345.826080 2429.062744,364.033875 2439.166748,388.161224 
	C2446.545898,405.782196 2448.296143,424.147278 2446.778564,442.652924 
	C2444.670654,468.356537 2434.693604,490.764648 2416.231934,509.527832 
	C2399.251221,526.785706 2379.175049,537.755371 2355.646484,541.802979 
	C2331.430176,545.968872 2307.518311,544.048889 2284.368164,533.745972 
M2274.004639,409.676788 
	C2270.581299,422.869537 2270.401367,436.186829 2273.066162,449.475464 
	C2276.490723,466.551971 2285.088623,480.647491 2299.977539,489.836487 
	C2313.408203,498.125732 2328.304199,500.530334 2344.147217,498.105804 
	C2364.928711,494.925537 2380.526611,484.515106 2388.952148,465.379669 
	C2399.707031,440.954102 2399.335205,416.358093 2386.161377,392.600708 
	C2379.484131,380.559143 2369.374512,372.484894 2356.408203,368.011597 
	C2345.758057,364.337280 2334.969727,363.199249 2323.645264,364.850037 
	C2311.090332,366.680176 2300.410889,371.688660 2291.231445,380.261383 
	C2282.778320,388.155823 2277.733887,398.084167 2274.004639,409.676788 
z"/>
<path fill="#BEBDA7" opacity="1.000000" stroke="none" 
	d="
M378.366699,524.750854 
	C371.793030,518.956543 365.056061,513.802246 359.360870,507.678986 
	C345.699829,492.991241 336.411316,475.808319 333.089447,455.867493 
	C331.533112,446.525055 329.931885,436.981232 330.207520,427.583099 
	C330.925018,403.117188 338.051514,380.806458 353.897736,361.412811 
	C372.266937,338.931396 395.522797,324.932770 423.918030,320.336243 
	C434.818115,318.571808 446.247803,319.648102 457.413483,320.053894 
	C475.079010,320.695892 491.049774,327.076385 505.748779,336.424103 
	C525.395081,348.917999 539.864868,365.992279 549.023315,387.518829 
	C556.465637,405.011719 558.281494,423.433716 556.824158,442.000824 
	C554.860107,467.024078 545.636902,489.118835 528.018555,507.664062 
	C512.383484,524.121643 493.959076,535.330383 471.928802,540.449341 
	C465.759888,541.882751 459.347778,542.491333 453.009674,542.911621 
	C446.850891,543.320129 440.643860,543.017151 434.458099,542.999207 
	C413.938934,542.939514 395.727753,535.735535 378.366699,524.750854 
M409.066772,489.563568 
	C423.019318,497.322021 437.667694,500.581360 453.744812,498.113953 
	C478.209473,494.359222 494.160217,480.977539 502.072083,457.691772 
	C506.377197,445.021118 506.723907,432.153320 505.127686,418.927551 
	C503.407288,404.672546 498.190765,392.036865 488.252838,381.982361 
	C473.379120,366.934174 454.921112,362.041809 434.022949,364.928375 
	C409.922241,368.257294 394.524231,381.962311 385.968140,404.079956 
	C380.206238,418.974548 380.056274,434.418427 383.129486,449.814911 
	C386.382202,466.110687 394.807404,479.375000 409.066772,489.563568 
z"/>
<path fill="#BEBDA7" opacity="1.000000" stroke="none" 
	d="
M811.736450,486.660706 
	C794.675415,514.764648 770.828308,533.398499 739.028870,540.749634 
	C729.064636,543.053101 718.516846,544.098999 708.296814,543.779541 
	C682.662720,542.978210 659.166748,535.798218 639.049011,518.743958 
	C619.038025,501.780121 605.576904,481.200562 601.059448,455.243164 
	C599.493652,446.246643 597.950378,437.037231 598.198059,427.974274 
	C598.871033,403.346985 605.956604,380.883301 621.933838,361.379059 
	C640.440491,338.787079 663.791565,324.570831 692.443726,320.217285 
	C721.969666,315.730988 750.370789,320.529083 775.470459,337.349579 
	C800.034607,353.811157 816.940857,376.631317 822.732971,405.934967 
	C828.211975,433.654877 825.644043,460.899933 811.736450,486.660706 
M731.480652,496.012970 
	C751.026001,490.376160 763.390320,477.245209 769.933105,458.442017 
	C774.422729,445.539429 774.878357,432.255066 773.131531,418.672089 
	C771.327698,404.645813 766.147339,392.204254 756.479248,382.183167 
	C740.348755,365.463715 719.784851,361.000580 697.818054,365.345123 
	C675.911377,369.677765 661.156067,383.598145 653.732361,404.730957 
	C649.755005,416.052979 648.530518,427.704773 649.817505,439.828003 
	C650.929932,450.306122 653.018311,460.478485 658.298279,469.401917 
	C673.653748,495.352875 703.286621,504.376526 731.480652,496.012970 
z"/>
<path fill="#BEBDA7" opacity="1.000000" stroke="none" 
	d="
M1208.007446,535.768616 
	C1208.001709,465.349243 1208.001709,395.410553 1208.001709,325.236145 
	C1224.686401,325.236145 1240.961182,325.236145 1257.825195,325.236145 
	C1257.825195,330.957428 1257.825195,336.817566 1257.825195,343.720703 
	C1262.780884,339.689545 1266.679443,336.066498 1271.012695,333.072754 
	C1288.432495,321.037781 1307.611206,316.911194 1328.642944,319.857819 
	C1339.923218,321.438202 1350.448120,324.408905 1360.091553,330.526062 
	C1376.906860,341.192657 1386.068848,356.898743 1388.822266,376.118439 
	C1390.728394,389.424133 1391.723511,402.956970 1391.860352,416.401184 
	C1392.252197,454.887329 1391.999146,493.380096 1391.999878,531.870239 
	C1392.000000,533.688049 1392.000000,535.505859 1392.000000,537.661499 
	C1375.402100,537.661499 1359.009033,537.661499 1342.000000,537.661499 
	C1342.000000,535.973633 1342.000000,534.208862 1342.000000,532.444153 
	C1341.999878,494.787109 1342.282471,457.126587 1341.818115,419.475250 
	C1341.688232,408.948212 1339.918213,398.339020 1337.901001,387.961792 
	C1334.943115,372.745239 1324.111572,365.718536 1309.577515,364.136688 
	C1300.572021,363.156616 1291.485107,363.803314 1282.960327,367.504730 
	C1270.264526,373.017273 1264.583374,383.940247 1262.180298,396.544586 
	C1260.318115,406.312103 1259.303467,416.361938 1259.125000,426.308075 
	C1258.474121,462.554382 1258.332764,498.809875 1257.994873,535.061829 
	C1257.987427,535.865112 1257.926392,536.667786 1257.866699,538.000671 
	C1246.891235,538.000671 1236.118896,538.000793 1225.346436,538.000549 
	C1220.681030,538.000488 1216.010986,538.110901 1211.353394,537.919373 
	C1210.218994,537.872742 1209.125488,536.832581 1208.007446,535.768616 
z"/>
<path fill="#BEBDA7" opacity="1.000000" stroke="none" 
	d="
M1769.000000,527.967407 
	C1769.000000,531.439148 1769.000000,534.416931 1769.000000,537.694458 
	C1752.333984,537.694458 1735.937500,537.694458 1719.268555,537.694458 
	C1719.268555,466.951782 1719.268555,396.224457 1719.268555,325.248260 
	C1735.781372,325.248260 1752.176025,325.248260 1768.848755,325.248260 
	C1768.848755,331.061920 1768.848755,336.679749 1768.848755,343.496735 
	C1772.938721,340.221344 1776.256958,337.504700 1779.636841,334.867249 
	C1796.226074,321.921997 1815.354004,317.335419 1835.883667,319.143585 
	C1854.715698,320.802216 1871.580200,327.357391 1884.634399,342.012085 
	C1892.135986,350.433533 1896.419067,360.332336 1898.893066,370.984741 
	C1902.749146,387.587921 1903.121582,404.548065 1903.047729,421.544830 
	C1902.887817,458.375580 1902.998535,495.207550 1902.998535,532.039001 
	C1902.998535,533.844238 1902.998535,535.649536 1902.998535,537.721741 
	C1886.275269,537.721741 1869.880737,537.721741 1853.000000,537.721741 
	C1853.000000,535.827576 1853.000000,534.045044 1853.000000,532.262573 
	C1853.000000,494.597809 1853.357544,456.927643 1852.784668,419.271576 
	C1852.610474,407.820953 1852.339111,396.150024 1848.123779,384.976227 
	C1844.336670,374.937714 1838.363647,368.354828 1827.585449,365.766724 
	C1816.592285,363.126984 1805.901978,363.121887 1795.363647,366.974945 
	C1781.736328,371.957336 1775.865967,383.381195 1773.197266,396.425232 
	C1771.271362,405.838867 1770.309692,415.578766 1770.125000,425.196350 
	C1769.469971,459.283295 1769.333130,493.380249 1769.000000,527.967407 
z"/>
<path fill="#BEBDA7" opacity="1.000000" stroke="none" 
	d="
M1097.002686,348.000000 
	C1097.002686,340.194305 1097.002686,332.888580 1097.002686,325.291992 
	C1113.622070,325.291992 1130.012695,325.291992 1146.702637,325.291992 
	C1146.702637,395.980988 1146.702637,466.672516 1146.702637,537.683228 
	C1130.367432,537.683228 1113.983521,537.683228 1097.002686,537.683228 
	C1097.002686,474.609131 1097.002686,411.554565 1097.002686,348.000000 
z"/>
<path fill="#BEBDA7" opacity="1.000000" stroke="none" 
	d="
M1090.947754,230.061203 
	C1093.565186,217.295853 1103.765625,208.507797 1117.613647,205.917297 
	C1135.164185,202.634171 1150.006470,215.380844 1153.312134,227.736938 
	C1157.615479,243.822632 1152.696411,257.475464 1137.473389,266.575867 
	C1126.433105,273.175751 1108.977417,271.430481 1098.803101,260.269867 
	C1091.039307,251.753510 1088.165527,241.843994 1090.947754,230.061203 
z"/>
<path fill="transparent" opacity="1.000000" stroke="none" 
	d="
M2300.112549,242.985565 
	C2314.460449,237.071793 2328.978027,234.369781 2344.146729,233.873550 
	C2365.059814,233.189438 2385.220947,236.388000 2404.556641,244.099030 
	C2419.940918,250.234177 2434.401367,258.036987 2444.474365,271.942627 
	C2452.051514,282.402771 2453.484863,293.275818 2446.683105,304.403015 
	C2393.269043,278.095093 2337.240967,271.193359 2278.478271,281.318176 
	C2274.186768,274.161377 2275.626221,262.658051 2283.014160,255.711960 
	C2288.078369,250.950775 2294.121338,247.230713 2300.112549,242.985565 
z"/>
<path fill="transparent" opacity="1.000000" stroke="none" 
	d="
M2415.916748,163.928253 
	C2421.146240,154.999527 2424.978271,145.382919 2424.851318,135.065323 
	C2424.527588,108.729836 2413.185059,89.031090 2387.015625,77.314407 
	C2392.115723,78.797043 2397.407471,79.819458 2402.281006,81.847450 
	C2417.733887,88.277802 2429.045410,98.645386 2433.193359,115.620155 
	C2433.461182,116.716362 2436.150391,117.888870 2437.716064,117.893066 
	C2449.130127,117.923706 2460.233887,119.705078 2470.274658,125.147079 
	C2487.831787,134.662552 2498.740234,149.110611 2502.105957,169.222153 
	C2504.850342,185.620819 2501.230713,200.473038 2491.901367,213.704941 
	C2483.159668,226.102951 2471.024902,234.136322 2455.839844,236.989090 
	C2453.475586,237.433258 2451.090820,237.769150 2448.578125,237.810013 
	C2461.658203,232.606171 2473.520996,226.032150 2481.064941,213.482285 
	C2488.506592,201.102386 2491.875000,187.585800 2489.595947,173.567245 
	C2484.357422,141.343811 2456.542725,123.564850 2433.892822,122.284119 
	C2435.604736,139.162079 2429.610596,153.052963 2416.715332,164.301727 
	C2416.161865,164.189865 2416.039307,164.059067 2415.916748,163.928253 
z"/>
<path fill="transparent" opacity="1.000000" stroke="none" 
	d="
M2416.463379,164.521790 
	C2416.409180,165.271408 2416.176270,165.819931 2415.943359,166.368439 
	C2415.649170,166.142319 2415.355225,165.916199 2415.061279,165.690079 
	C2415.163086,165.175385 2415.265137,164.660706 2415.642090,164.037140 
	C2416.039307,164.059067 2416.161865,164.189865 2416.463379,164.521790 
z"/>
<path fill="transparent" opacity="1.000000" stroke="none" 
	d="
M2004.999268,439.107544 
	C2002.686035,417.156738 2007.746948,397.958496 2022.646118,381.807861 
	C2033.790894,369.726929 2047.598267,363.830048 2064.004639,364.004730 
	C2088.522217,364.265778 2109.217041,380.131348 2117.095947,402.423340 
	C2124.975098,424.716461 2124.540283,446.735992 2113.890137,467.919891 
	C2105.233887,485.137512 2091.175049,495.266815 2071.662354,498.141113 
	C2052.773438,500.923553 2036.593628,495.907990 2023.380859,482.636353 
	C2013.668091,472.880280 2007.691284,460.756378 2005.988892,446.828705 
	C2005.692627,444.404205 2005.331055,441.987671 2004.999268,439.107544 
z"/>
<path fill="transparent" opacity="1.000000" stroke="none" 
	d="
M1493.000000,430.076508 
	C1494.272217,414.361298 1497.173218,399.658478 1507.022217,387.233490 
	C1516.335083,375.484802 1527.519653,367.099487 1542.959839,364.913208 
	C1563.541016,361.998932 1580.767456,367.770447 1594.674561,383.199493 
	C1603.422852,392.905029 1608.317383,404.370331 1610.039917,417.311890 
	C1612.011841,432.127258 1611.682617,446.637665 1606.079834,460.786591 
	C1597.837769,481.600677 1583.487915,494.573303 1560.840820,498.097565 
	C1541.815430,501.058289 1525.466431,495.889099 1512.205688,482.439819 
	C1502.564453,472.661591 1496.529541,460.559357 1494.980347,446.583679 
	C1494.386719,441.228394 1493.663940,435.887421 1493.000000,430.076508 
z"/>
<path fill="transparent" opacity="1.000000" stroke="none" 
	d="
M2274.027832,409.257538 
	C2277.733887,398.084167 2282.778320,388.155823 2291.231445,380.261383 
	C2300.410889,371.688660 2311.090332,366.680176 2323.645264,364.850037 
	C2334.969727,363.199249 2345.758057,364.337280 2356.408203,368.011597 
	C2369.374512,372.484894 2379.484131,380.559143 2386.161377,392.600708 
	C2399.335205,416.358093 2399.707031,440.954102 2388.952148,465.379669 
	C2380.526611,484.515106 2364.928711,494.925537 2344.147217,498.105804 
	C2328.304199,500.530334 2313.408203,498.125732 2299.977539,489.836487 
	C2285.088623,480.647491 2276.490723,466.551971 2273.066162,449.475464 
	C2270.401367,436.186829 2270.581299,422.869537 2274.027832,409.257538 
z"/>
<path fill="transparent" opacity="1.000000" stroke="none" 
	d="
M408.807831,489.298157 
	C394.807404,479.375000 386.382202,466.110687 383.129486,449.814911 
	C380.056274,434.418427 380.206238,418.974548 385.968140,404.079956 
	C394.524231,381.962311 409.922241,368.257294 434.022949,364.928375 
	C454.921112,362.041809 473.379120,366.934174 488.252838,381.982361 
	C498.190765,392.036865 503.407288,404.672546 505.127686,418.927551 
	C506.723907,432.153320 506.377197,445.021118 502.072083,457.691772 
	C494.160217,480.977539 478.209473,494.359222 453.744812,498.113953 
	C437.667694,500.581360 423.019318,497.322021 408.807831,489.298157 
z"/>
<path fill="transparent" opacity="1.000000" stroke="none" 
	d="
M731.065613,496.058990 
	C703.286621,504.376526 673.653748,495.352875 658.298279,469.401917 
	C653.018311,460.478485 650.929932,450.306122 649.817505,439.828003 
	C648.530518,427.704773 649.755005,416.052979 653.732361,404.730957 
	C661.156067,383.598145 675.911377,369.677765 697.818054,365.345123 
	C719.784851,361.000580 740.348755,365.463715 756.479248,382.183167 
	C766.147339,392.204254 771.327698,404.645813 773.131531,418.672089 
	C774.878357,432.255066 774.422729,445.539429 769.933105,458.442017 
	C763.390320,477.245209 751.026001,490.376160 731.065613,496.058990 
z"/>
</svg>