<?xml version="1.0" encoding="UTF-8"?>
<svg id="Capa_1" xmlns="http://www.w3.org/2000/svg" viewBox="0 0 1806 1858">
  <defs>
    <style>
      .cls-1 {
        fill: #bebda7;
      }

      .cls-2 {
        fill: #1b1716;
      }
    </style>
  </defs>
  <rect class="cls-2" x="41.1" y="74.02" width="1683.5" height="1683.5" rx="841.75" ry="841.75"/>
  <path class="cls-1" d="M1346.18,1464.27c-13.55-5.83-25.59-11.44-37.94-16.27-69.72-27.25-142.15-43.84-216.13-53.94-87.91-12.01-176.24-15.84-264.84-11.22-92,4.79-182.8,17.34-270.59,46.55-25.92,8.62-51.18,19.22-76.72,28.94-3.28,1.25-6.48,2.7-10.59,4.42-.19-3.17-.44-5.41-.45-7.65-.33-104.9-.67-209.8-.85-314.7,0-4.76-1.86-7-5.78-9.36-24.65-14.77-51.01-27.5-73.23-45.35-67.32-54.09-111.55-123.56-128.29-208.95-15.33-78.18-8.44-154.56,27.89-225.99,63.99-125.83,167.73-190.91,308.91-196.04,6.17-.22,12.42-.4,18.54.29,6.18.7,9.31-1.89,12.41-6.91,52.64-85.32,127.85-137.63,226.96-155.19,126.36-22.38,260.97,38.05,329.57,154.09,3.16,5.35,6.52,6.77,12.42,6.65,181.44-3.44,297.93,112.52,338.92,226.74,48.37,134.79,25.64,258.6-69.59,367.05-31.32,35.67-70,62.08-113.56,81.02-5.68,2.47-7.63,5.37-7.61,11.57.34,105.14.43,210.28.57,315.42,0,2.56,0,5.12,0,8.82ZM1303.77,1387.28c.4-.56.9-1.1,1.19-1.73,20.98-45.33,18.2-89.07-9.19-130.94-17.65-26.98-41.83-47.31-68.5-64.72-41.43-27.05-87-44.93-134.43-57.98-95.12-26.18-191.67-31.73-289.19-17.08-72.23,10.85-141.83,30.41-205.48,67.5-33.03,19.25-62.14,43.13-83.03,75.76-19.58,30.59-26.28,63.54-15.95,98.87,3.13,10.72,8.31,20.85,12.56,31.28,9.59-3.84,17.23-7.13,25.03-9.98,72.81-26.63,148.4-40.85,225.07-50.21,77.24-9.43,154.71-10.31,232.25-5.32,106.07,6.82,210.33,22.66,309.68,64.55ZM1238.83,1079.58c.06.46.11.92.17,1.39,3.26-.46,6.53-.94,9.79-1.38,53.57-7.35,102.3-26.82,143.48-61.97,62.37-53.24,94.56-121.96,96.77-203.75,4.77-176.34-142.77-311.06-318.06-291.19-13.87,1.57-27.64,4.09-41.75,6.21-.61-1.37-1.41-2.83-1.92-4.37-13.23-40.17-37.95-72.2-70.7-98.16-45.43-36.01-98.35-52.18-155.41-55.36-20.37-1.14-40.91.82-61.38,1.37-.09.77-.18,1.54-.27,2.31,99.62,10.48,179.52,53.19,225.13,145.15,45,90.73,38.51,180.45-15.12,266.59,73.59-62.19,102.71-140.51,84.78-236.42,3.15,0,5.71-.07,8.26,0,64.49,1.89,123.3,21.27,174.19,60.88,91.07,70.89,125.28,165.1,101.49,276.87-19.1,89.73-78.67,148.68-161.58,184.99-5.84,2.56-11.91,4.59-17.87,6.87Z"/>
</svg>