<svg width="44" height="44" viewBox="0 0 44 44" fill="none" xmlns="http://www.w3.org/2000/svg">
<mask id="mask0_95_827" style="mask-type:alpha" maskUnits="userSpaceOnUse" x="3" y="0" width="38" height="44">
<path d="M32.9996 10.9997C32.9996 17.0747 28.075 21.9995 22.0001 21.9995C15.9252 21.9995 11.0005 17.0747 11.0005 10.9997C11.0005 4.92475 15.9252 0 22.0001 0C28.075 0 32.9996 4.92475 32.9996 10.9997Z" fill="#006FFD"/>
<path d="M3.66736 36.6668C3.66736 30.5918 8.59203 25.6671 14.6669 25.6671H29.333C35.4079 25.6671 40.3326 30.5918 40.3326 36.6668V38.5001C40.3326 41.5376 37.8703 44 34.8328 44H9.16714C6.1297 44 3.66736 41.5376 3.66736 38.5001V36.6668Z" fill="#006FFD"/>
</mask>
<g mask="url(#mask0_95_827)">
<rect x="0.000854492" y="-0.00195312" width="43.9983" height="43.999" fill="#C1A881"/>
</g>
</svg>
