<?xml version="1.0" encoding="UTF-8"?>
<svg id="Capa_1" xmlns="http://www.w3.org/2000/svg" viewBox="0 0 1800 1800">
  <defs>
    <style>
      .cls-1 {
        font-family: Futura-Medium, Futura;
        font-size: 213.65px;
        font-weight: 500;
      }
    </style>
  </defs>
  <text class="cls-1" transform="translate(262.09 988.86)"><tspan x="0" y="0">Cookinando</tspan></text>
  <path d="M1444.77,886.27c-1.3-.79-2.45-1.53-3.65-2.2-6.74-3.77-13.91-6.48-21.33-8.55-8.82-2.46-17.79-4.1-26.91-4.87-9.47-.8-18.93-.8-28.31.95-2.77.52-5.5,1.24-8.25,1.88-.35.08-.7.18-1.14.3.03-.33.03-.56.06-.79,1.44-10.73,2.88-21.45,4.34-32.18.07-.49-.09-.74-.46-1.04-2.31-1.86-4.83-3.53-6.85-5.67-6.12-6.48-9.66-14.2-10.17-23.16-.47-8.21,1.31-15.92,6.03-22.7,8.31-11.96,19.83-17.15,34.33-15.69.63.06,1.28.13,1.89.29.62.16.98-.06,1.37-.53,6.58-7.98,15-12.27,25.38-12.67,13.23-.51,26.14,7.56,31.52,20.39.25.59.57.78,1.18.85,18.59,2.2,28.87,15.69,31.45,27.94,3.05,14.46-1.02,26.79-12.28,36.54-3.7,3.2-8.03,5.36-12.75,6.68-.61.17-.86.44-.94,1.08-1.44,10.75-2.92,21.5-4.38,32.25-.04.26-.07.52-.12.9ZM1441.52,877.81c.05-.05.11-.1.15-.16,2.78-4.34,3.11-8.85.9-13.51-1.42-3.01-3.61-5.42-6.09-7.58-3.85-3.35-8.26-5.82-12.92-7.82-9.35-4.01-19.14-5.94-29.32-5.81-7.53.09-14.92,1.11-21.95,4.01-3.65,1.5-6.96,3.53-9.55,6.57-2.43,2.85-3.58,6.12-3.02,9.88.17,1.14.56,2.25.84,3.37,1.03-.26,1.86-.49,2.7-.67,7.82-1.7,15.74-2.09,23.71-1.96,8.03.12,15.96,1.12,23.81,2.72,10.75,2.19,21.18,5.28,30.74,10.95ZM1439.21,845.44s0,.1,0,.14c.34,0,.68,0,1.02,0,5.58,0,10.83-1.3,15.54-4.31,7.12-4.56,11.38-11.13,12.76-19.46,2.97-17.96-10.21-33.8-28.41-34.24-1.44-.03-2.88.03-4.35.05-.04-.15-.1-.31-.13-.47-.79-4.29-2.86-7.91-5.84-11.03-4.14-4.32-9.32-6.72-15.1-7.84-2.07-.4-4.19-.49-6.29-.72-.02.08-.04.15-.06.23,10.03,2.47,17.6,7.96,20.97,18,3.32,9.91,1.4,18.98-5.3,27.03,8.4-5.32,12.47-12.92,11.99-22.97.32.04.58.07.84.12,6.56,1.1,12.3,3.91,16.95,8.67,8.31,8.53,10.48,18.64,6.48,29.73-3.21,8.9-10.13,14.09-19.12,16.63-.63.18-1.28.3-1.92.45Z"/>
</svg>